<svg
  aria-hidden="true"
  width="20"
  height="20"
  viewBox="0 0 20 20"
  fill="none"
  xmlns="http://www.w3.org/2000/svg"
>
  <path
    d="M16.4702 7.30208C16.1056 6.46354 15.6135 5.71615 14.9937 5.07813C14.3558 4.4401 13.6267 3.92969 12.7882 3.5651C11.9497 3.20052 11.0383 3 10.0723 3C9.12446 3 8.21308 3.16406 7.35638 3.52865C6.49969 3.89323 5.75236 4.38542 5.09617 5.00521C4.43998 5.64323 3.92961 6.3724 3.56505 7.21094C3.2005 8.04948 3 8.96094 3 9.92708C3 10.875 3.16405 11.7865 3.5286 12.6432C3.89315 13.5 4.38529 14.2474 5.02326 14.9036C5.66122 15.5599 6.40855 16.0703 7.24702 16.4349C8.10371 16.7995 8.99686 17 9.96292 17H16.9988V10.0365C17.017 9.07031 16.8347 8.15885 16.4702 7.30208ZM7.79384 15.1406C7.11943 14.849 6.51792 14.4297 6.00755 13.9193C5.49717 13.3906 5.09617 12.7891 4.80453 12.1146C4.51289 11.4219 4.38529 10.7109 4.38529 9.94531C4.38529 9.16146 4.54934 8.43229 4.84098 7.75781C5.13262 7.08333 5.55186 6.5 6.06223 5.98958C6.59083 5.47917 7.19234 5.09635 7.86676 4.80469C8.5594 4.51302 9.27028 4.38542 10.0358 4.38542C10.8196 4.38542 11.5487 4.54948 12.2231 4.84115C12.8976 5.13281 13.4808 5.53385 13.9912 6.0625C14.5016 6.57292 14.8844 7.17448 15.176 7.84896C15.4676 8.52344 15.5952 9.25261 15.5952 10.0365V14.7396L10.5644 9.65365L11.6763 6.59115C11.8039 6.26302 11.6216 5.89844 11.2935 5.77083C10.9654 5.64323 10.6009 5.82552 10.4733 6.15365L9.58015 8.63281L8.01258 7.04688C7.75739 6.79167 7.35638 6.79167 7.11943 7.04688C6.86424 7.30208 6.86424 7.70313 7.11943 7.9401L10.9472 11.8594H8.17662C7.8303 11.8594 7.53866 12.151 7.53866 12.4974C7.53866 12.8438 7.8303 13.1354 8.17662 13.1354H12.1502C12.1685 13.1354 12.1867 13.1354 12.1867 13.1354L14.6656 15.6146H9.96292C9.17914 15.5964 8.48649 15.4505 7.79384 15.1406Z"
    fill="#00C471"
  ></path>
</svg>